{"title":"The Tree of Life(2011)MPEG-4[DaScubaDude]","uid":15394862,"size":1516794393,"categoryP":"video","categoryS":"movies","magnet":"?xt=urn:btih:645d3d211aa9e2a623fccb8ee8272d46e61aa8a8&amp;dn=The+Tree+of+Life%282011%29MPEG-4%5BDaScubaDude%5D&amp;tr=udp%3A%2F%2Ftracker.leechers-paradise.org%3A6969&amp;tr=udp%3A%2F%2Fzer0day.ch%3A1337&amp;tr=udp%3A%2F%2Fopen.demonii.com%3A1337&amp;tr=udp%3A%2F%2Ftracker.coppersurfer.tk%3A6969&amp;tr=udp%3A%2F%2Fexodus.desync.com%3A6969","seeders":75,"leechers":1,"uploader":"dascuba","files":1,"time":1469384814,"description":"The Tree of Life (2011)\r\nPG-13 | 2h 19min | Drama, Fantasy | 17 May 2011 (France)\r\nThe story of a family in Waco, Texas in 1956. The eldest son witnesses the loss of innocence and struggles with his parents' conflicting teachings.\r\nDirector: Terrence Malick\r\nWriter: Terrence Malick\r\nStars: Brad Pitt, Sean Penn, Jessica Chastain | \r\n\r\nGeneral\r\nComplete name                            : Tree of LifeTREE_OF_LIFE_FD_Title1.mp4\r\nFormat                                   : MPEG-4\r\nFormat profile                           : Base Media\r\nCodec ID                                 : isom (isom/iso2/avc1/mp41)\r\nFile size                                : 1.41 GiB\r\nDuration                                 : 2h 18mn\r\nOverall bit rate                         : 1 457 Kbps\r\nMovie name                               : TREE_OF_LIFE_FD\r\nGenre                                    : Drama\r\nWriting application                      : Lavf54.6.100\r\n\r\nVideo\r\nID                                       : 1\r\nFormat                                   : AVC\r\nFormat/Info                              : Advanced Video Codec\r\nFormat profile                           :   \r\nFormat settings, CABAC                   : No\r\nFormat settings, ReFrames                : 6 frames\r\nCodec ID                                 : avc1\r\nCodec ID/Info                            : Advanced Video Coding\r\nDuration                                 : 2h 18mn\r\nBit rate                                 : 1 194 Kbps\r\nWidth                                    : 720 pixels\r\nHeight                                   : 404 pixels\r\nDisplay aspect ratio                     : 16:9\r\nFrame rate mode                          : Constant\r\nFrame rate                               : 29.970 (30000/1001) fps\r\nColor space                              : YUV\r\nChroma subsampling                       : 4:2:0\r\nBit depth                                : 8 bits\r\nScan type                                : Progressive\r\nBits/(Pixel*Frame)                       : 0.137\r\nStream size                              : 1.16 GiB (82%)\r\n\r\nAudio\r\nID                                       : 2\r\nFormat                                   : AAC\r\nFormat/Info                              : Advanced Audio Codec\r\nFormat profile                           : LC\r\nCodec ID                                 : 40\r\nDuration                                 : 2h 18mn\r\nBit rate mode                            : Constant\r\nBit rate                                 : 257 Kbps\r\nChannel(s)                               : 2 channels\r\nChannel(s)_Original                      : 6 channels\r\nChannel positions                        : Front: L C R, Side: L R, LFE\r\nSampling rate                            : 44.1 KHz\r\nFrame rate                               : 43.066 fps (1024 spf)\r\nCompression mode                         : Lossy\r\nStream size                              : 255 MiB (18%)\r\nDefault                                  : Yes\r\nAlternate group                          : 1","torrent":{"xt":"urn:btih:645d3d211aa9e2a623fccb8ee8272d46e61aa8a8","amp;dn":"The+Tree+of+Life%282011%29MPEG-4%5BDaScubaDude%5D","amp;tr":["udp%3A%2F%2Ftracker.leechers-paradise.org%3A6969","udp%3A%2F%2Fzer0day.ch%3A1337","udp%3A%2F%2Fopen.demonii.com%3A1337","udp%3A%2F%2Ftracker.coppersurfer.tk%3A6969","udp%3A%2F%2Fexodus.desync.com%3A6969"],"infoHash":"645d3d211aa9e2a623fccb8ee8272d46e61aa8a8","infoHashBuffer":{"type":"Buffer","data":[100,93,61,33,26,169,226,166,35,252,203,142,232,39,45,70,230,26,168,168]},"announce":[],"urlList":[]}}